<?xml version="1.0" encoding="utf-8"?>
<!-- Generator: Adobe Illustrator 16.0.0, SVG Export Plug-In . SVG Version: 6.00 Build 0)  -->
<!DOCTYPE svg PUBLIC "-//W3C//DTD SVG 1.1//EN" "http://www.w3.org/Graphics/SVG/1.1/DTD/svg11.dtd">
<svg version="1.1" id="Layer_1" xmlns="http://www.w3.org/2000/svg" xmlns:xlink="http://www.w3.org/1999/xlink" x="0px" y="0px"
	 width="812px" height="307px" viewBox="0 0 812 307" style="enable-background:new 0 0 812 307;" xml:space="preserve">
<style type="text/css">
<![CDATA[
	.st0{clip-path:url(#SVGID_2_);fill:#575656;}
	.st1{clip-path:url(#SVGID_2_);fill:#FFFFFF;}
]]>
</style>
<g>
	<defs>
		<rect id="SVGID_1_" width="812" height="307"/>
	</defs>
	<clipPath id="SVGID_2_">
		<use xlink:href="#SVGID_1_"  style="overflow:visible;"/>
	</clipPath>
	<path class="st0" d="M518.6,153.1c0,58.5-47.4,106-106,106c-58.5,0-106-47.4-106-106c0-58.5,47.4-106,106-106
		C471.2,47.1,518.6,94.6,518.6,153.1"/>
	<path class="st1" d="M375.1,178.2c-3.1-0.5-5.6,1.1-6.7,3c-2.3,0.5-4.2,2.8-4,5.6c-2.1,0.4-3.7,2.2-3.7,4.3h14.4V178.2z"/>
	<path class="st1" d="M393,170.1c6.7-1.6,13.2-2.3,19.6-2.3c6.5,0,12.9,0.8,19.6,2.3l0,21.3h12.6l0-86.1c-4-0.7-5.1-1.3-8.8-1.8
		v-6.7c-8.6-1.8-16-2.7-23.3-2.7c-7.4,0-14.8,0.9-23.3,2.7v6.7c-3.7,0.5-4.8,1.1-8.8,1.8l0,86.1H393V170.1z M420.2,110h11v11h-11
		V110z M420.2,129.3h11v11h-11V129.3z M420.2,148.7h11v11h-11V148.7z M394.1,110h11v11h-11V110z M394.1,129.3h11v11h-11V129.3z
		 M394.1,148.7h11v11h-11V148.7z"/>
	<rect x="398.6" y="175.3" class="st1" width="11.4" height="16.4"/>
	<rect x="415.4" y="175.3" class="st1" width="11.4" height="16.4"/>
	<path class="st1" d="M450.3,178.2c3.1-0.5,5.6,1.1,6.7,3c2.3,0.5,4.2,2.8,4,5.6c2.1,0.4,3.7,2.2,3.7,4.3h-14.4V178.2z"/>
	<path class="st0" d="M268.8,153.1c0,58.5-47.4,106-106,106c-58.5,0-106-47.4-106-106c0-58.5,47.4-106,106-106
		C221.4,47.1,268.8,94.6,268.8,153.1"/>
	<path class="st1" d="M225.4,133.7c-2.8-5.6-9.6-7.8-15.1-5L177.9,145l-52.7-19.2l-16.5,8.3l44.1,23.5l-23.4,11.8l-17-6.1L99,170
		l24.5,16.1c4,3.1,10.5,6.2,16,3.5l80.9-40.7C226,146,228.2,139.2,225.4,133.7"/>
	<path class="st0" d="M755.1,153.9c0,58.5-47.4,106-106,106c-58.5,0-106-47.4-106-106c0-58.5,47.4-106,106-106
		C707.7,48,755.1,95.4,755.1,153.9"/>
	<path class="st1" d="M698.8,138.5h-7.6c-0.6,0-1.1,0.2-1.6,0.6l-1.6,1.6c-2.7-6.3-6.7-12.6-12-19.1c-2.9-3.5-7.1-5.5-11.6-5.5
		h-30.5c-4.5,0-8.8,2-11.6,5.5c-5.5,6.7-9.3,12.8-12,19.1l-1.6-1.5c-0.4-0.4-1-0.6-1.6-0.6h-7.6c-1.2,0-2.2,1-2.2,2.2v5.2
		c0,1.2,0.9,2.2,2.1,2.2l7.8,0.5c-1.2,3.5-2.1,8.6-2.1,15.9c0,6.3,1.3,10.4,3.5,13.1v12.1c0,1,0.8,1.9,1.9,1.9h8.7
		c1,0,1.9-0.8,1.9-1.9v-7.5h56.4v7.5c0,1,0.8,1.9,1.9,1.9h8.7c1,0,1.9-0.8,1.9-1.9v-12.1c2.2-2.7,3.5-6.8,3.5-13.1
		c0-7.3-0.9-12.4-2.1-15.9l7.8-0.5c1.2-0.1,2.1-1.1,2.1-2.2v-5.2C701.1,139.5,700.1,138.5,698.8,138.5 M628.7,126.9
		c1.3-1.6,3.2-2.5,5.2-2.5h30.5c2,0,3.9,0.9,5.2,2.5c3.7,4.5,6.6,8.9,8.9,13.2l-58.8,0C621.9,135.9,624.9,131.5,628.7,126.9
		 M622.3,173.1c-4.3,0-7.8-1.4-7.8-4.8c0-3.4,1.3-6.2,5.6-6.2c4.3,0,10,2.8,10,6.2C630.1,171.7,626.6,173.1,622.3,173.1
		 M657.3,172.4H641c-2.5,0-4.5-2-4.5-4.5c0-0.7,0.6-1.3,1.3-1.3h22.8c0.7,0,1.3,0.6,1.3,1.3C661.8,170.4,659.8,172.4,657.3,172.4
		 M676,173.1c-4.3,0-7.8-1.4-7.8-4.8c0-3.4,5.7-6.2,10-6.2c4.3,0,5.6,2.8,5.6,6.2C683.9,171.7,680.4,173.1,676,173.1"/>
</g>
</svg>
